<?xml version="1.0" encoding="UTF-8"?>
<svg id="Layer_1" data-name="Layer 1" xmlns="http://www.w3.org/2000/svg" viewBox="0 0 128.74 34.84">
  <g id="_e60005ff" data-name="#e60005ff">
    <path d="M27.87.05h18.76c-2.9,11.59-5.69,23.21-8.6,34.79H0v-.36.35C9.27,23.22,18.56,11.63,27.87.05M25.76,6.75c0,2.49,0,4.99,0,7.48-2.48,0-4.97,0-7.45,0,.01,2.14.01,4.27,0,6.41,2.48.01,4.97,0,7.45,0-.01,2.49,0,4.99,0,7.48,2.16.01,4.31,0,6.47,0-.01-2.49,0-4.99,0-7.49,2.49,0,4.99,0,7.48,0,0-2.14,0-4.28,0-6.42-2.49,0-4.99,0-7.48,0,0-2.5,0-4.99,0-7.49-2.16,0-4.31-.01-6.47,0Z" style="fill: #e60005; stroke-width: 0px;"/>
    <text transform="translate(49.46 22.46)" style="fill: #e60005; font-family: PlusJakartaSansRoman-ExtraBold, &apos;Plus Jakarta Sans&apos;; font-size: 18.42px; font-variation-settings: &apos;wght&apos; 800; font-weight: 700;"><tspan x="0" y="0">cr</tspan><tspan x="18.37" y="0" style="letter-spacing: 0em;">a</tspan><tspan x="28.93" y="0" style="letter-spacing: .03em;">f</tspan><tspan x="37.03" y="0" style="letter-spacing: 0em;">t</tspan></text>
  </g>
  <g id="_ffffffff" data-name="#ffffffff">
    <path d="M25.76,6.75c2.16-.01,4.31,0,6.47,0-.01,2.5,0,4.99,0,7.49,2.49,0,4.99,0,7.48,0,0,2.14,0,4.28,0,6.42-2.49,0-4.99,0-7.48,0,0,2.49,0,4.99,0,7.49-2.16,0-4.31,0-6.47,0,0-2.49,0-4.99,0-7.48-2.48,0-4.97,0-7.45,0,.01-2.14.01-4.27,0-6.41,2.48-.01,4.97,0,7.45,0-.01-2.49,0-4.99,0-7.48Z" style="fill: #fff; stroke-width: 0px;"/>
  </g>
</svg>