<?xml version="1.0" encoding="UTF-8"?>
<svg id="Layer_1" data-name="Layer 1" xmlns="http://www.w3.org/2000/svg" viewBox="0 0 128.74 34.84">
  <g id="_e60005ff" data-name="#e60005ff">
    <path d="M27.87.05h18.76c-2.9,11.59-5.69,23.21-8.6,34.79H0v-.36.35C9.27,23.22,18.56,11.63,27.87.05M25.76,6.75c0,2.49,0,4.99,0,7.48-2.48,0-4.97,0-7.45,0,.01,2.14.01,4.27,0,6.41,2.48.01,4.97,0,7.45,0-.01,2.49,0,4.99,0,7.48,2.16.01,4.31,0,6.47,0-.01-2.49,0-4.99,0-7.49,2.49,0,4.99,0,7.48,0,0-2.14,0-4.28,0-6.42-2.49,0-4.99,0-7.48,0,0-2.5,0-4.99,0-7.49-2.16,0-4.31-.01-6.47,0Z" style="fill: #e60005; stroke-width: 0px;"/>
    <text transform="translate(49.46 22.46)" style="fill: #e60005; font-family: PlusJakartaSansRoman-ExtraBold, &apos;Plus Jakarta Sans&apos;; font-size: 18.42px; font-variation-settings: &apos;wght&apos; 800; font-weight: 700;"><tspan x="0" y="0">cr</tspan><tspan x="18.37" y="0" style="letter-spacing: 0em;">a</tspan><tspan x="28.93" y="0" style="letter-spacing: .03em;">f</tspan><tspan x="37.03" y="0" style="letter-spacing: 0em;">t</tspan></text>
    <g>
      <path d="M123.98,28.33v-.45h-1.63v4.4h1.62v-2.11c0-.7.65-1.15,1.61-.87v-1.44c-.41-.1-1.03-.08-1.6.49Z" style="stroke-width: 0px;"/>
      <path d="M118.3,31.83v.45h1.59v-4.4h-1.59v.42c-.43-.42-.74-.56-1.37-.57-1.04-.02-2.14.79-2.14,2.28,0,1.59,1.06,2.37,2.12,2.36.65,0,1.19-.27,1.39-.54ZM117.43,31.02c-.53,0-.96-.43-.96-.96s.43-.96.96-.96.96.43.96.96c0,.53-.43.96-.96.96Z" style="stroke-width: 0px;"/>
      <path d="M111.37,30.82l-.58,1.13c.52.32,1.29.49,1.87.49.48,0,.96-.12,1.35-.39.44-.31.69-.79.65-1.39-.04-.54-.29-.86-.67-1.03-.38-.17-.78-.17-1.11-.26-.12-.03-.21-.09-.19-.28.03-.21.31-.26.52-.25.32.02.54.13.74.21l.53-1.04c-.32-.19-1.02-.31-1.49-.29-.43.01-.85.09-1.19.28-.46.25-.74.69-.75,1.23-.02.52.23,1.04.8,1.23.28.09.57.07.9.14.15.03.29.16.25.34-.05.22-.26.28-.48.28-.38,0-.88-.19-1.17-.4Z" style="stroke-width: 0px;"/>
      <rect x="120.31" y="27.88" width="1.62" height="4.4" style="stroke-width: 0px;"/>
      <polygon points="102.39 27.88 100.78 27.88 100.09 30.22 99.48 27.88 97.81 27.88 99.28 32.27 100.82 32.27 101.53 29.86 102.16 32.27 103.73 32.27 105.3 27.88 103.72 27.88 103.02 30.27 102.39 27.88" style="stroke-width: 0px;"/>
      <circle cx="121.13" cy="26.29" r=".92" style="stroke-width: 0px;"/>
      <rect x="105.34" y="27.88" width="1.63" height="4.4" style="stroke-width: 0px;"/>
      <circle cx="106.16" cy="26.29" r=".92" style="stroke-width: 0px;"/>
      <path d="M94.66,30.82l-.58,1.13c.52.32,1.29.49,1.87.49.48,0,.96-.12,1.35-.39.44-.31.69-.79.65-1.39-.04-.54-.29-.86-.67-1.03-.38-.17-.78-.17-1.11-.26-.12-.03-.21-.09-.19-.28.03-.21.31-.26.52-.25.32.02.54.13.74.21l.53-1.04c-.32-.19-1.02-.31-1.49-.29-.43.01-.85.09-1.19.28-.46.25-.74.69-.75,1.23-.02.52.23,1.04.8,1.23.28.09.57.07.9.14.15.03.3.16.25.34-.05.22-.26.28-.48.28-.38,0-.88-.19-1.17-.4Z" style="stroke-width: 0px;"/>
      <path d="M107.62,30.82l-.58,1.13c.52.32,1.29.49,1.87.49.48,0,.96-.12,1.35-.39.44-.31.69-.79.65-1.39-.04-.54-.29-.86-.67-1.03-.38-.17-.78-.17-1.11-.26-.12-.03-.21-.09-.19-.28.03-.21.31-.26.52-.25.32.02.54.13.74.21l.53-1.04c-.32-.19-1.02-.31-1.49-.29-.43.01-.85.09-1.19.28-.46.25-.74.69-.75,1.23-.02.52.23,1.04.8,1.23.28.09.57.07.9.14.15.03.3.16.25.34-.05.22-.26.28-.48.28-.38,0-.88-.19-1.17-.4Z" style="stroke-width: 0px;"/>
    </g>
    <text transform="translate(85.57 31.02)" style="font-family: PlusJakartaSansRoman-ExtraBold, &apos;Plus Jakarta Sans&apos;; font-size: 5.16px; font-variation-settings: &apos;wght&apos; 800; font-weight: 700;"><tspan x="0" y="0" style="letter-spacing: -.01em;">b</tspan><tspan x="3.42" y="0">y</tspan></text>
  </g>
  <g id="_ffffffff" data-name="#ffffffff">
    <path d="M25.76,6.75c2.16-.01,4.31,0,6.47,0-.01,2.5,0,4.99,0,7.49,2.49,0,4.99,0,7.48,0,0,2.14,0,4.28,0,6.42-2.49,0-4.99,0-7.48,0,0,2.49,0,4.99,0,7.49-2.16,0-4.31,0-6.47,0,0-2.49,0-4.99,0-7.48-2.48,0-4.97,0-7.45,0,.01-2.14.01-4.27,0-6.41,2.48-.01,4.97,0,7.45,0-.01-2.49,0-4.99,0-7.48Z" style="fill: #fff; stroke-width: 0px;"/>
  </g>
</svg>