<?xml version="1.0" encoding="UTF-8"?>
<svg id="Calque_1" data-name="Calque 1" xmlns="http://www.w3.org/2000/svg" viewBox="0 0 868.4 877">
  <path d="M333.17,488.5c9.67,23.67,19.28,47.36,29.02,70.99,5.72,13.88,12.17,27.49,17.3,41.57,3.45,9.49,5.21,19.59,7.68,29.44,6.68,26.66,13.43,53.31,19.98,80.01,6.12,24.97,11.95,50.01,18.05,74.99,5.05,20.69,10.44,41.31,15.39,62.03,1.28,5.38,2.55,10.25,8.59,11.98" style="fill: none; stroke: #000; stroke-linecap: round; stroke-linejoin: round; stroke-width: 2px;"/>
  <path d="M361.67,486.5c1.15-6.44.32-7.49-6-7.5-1.5,0-3.01-.11-4.5.02-3.92.34-5.38,2.67-3.99,6.48,4.64,12.68,9.32,25.34,13.99,38,9.16,24.83,18.98,49.45,27.27,74.58,5.53,16.77,9,34.23,13.2,51.43,3.98,16.3,7.73,32.65,11.52,48.99,6.86,29.49,13.61,59.01,20.53,88.49,5.05,21.53,10.35,43,15.43,64.52.65,2.76.71,5.66,1.04,8.49,2.67-1,5.29-2.7,8.01-2.86,6.98-.41,13.99-.14,20.99-.14h10" style="fill: none; stroke: #000; stroke-linecap: round; stroke-linejoin: round; stroke-width: 2px;"/>
  <path d="M449.17,18c.5,10.59-3.4,20.4-5.62,30.47-5.65,25.74-11.84,51.37-17.9,77.02-4.93,20.85-10.03,41.66-14.97,62.51-6.71,28.32-12.95,56.77-20.2,84.95-3.03,11.79-8.06,23.08-12.33,34.54-9.95,26.69-19.98,53.34-29.97,80.01-.24.64-.34,1.33-.51,2" style="fill: none; stroke: #000; stroke-linecap: round; stroke-linejoin: round; stroke-width: 2px;"/>
  <path d="M546.17,481c-.33-1.83-.83-3.65-.97-5.5-.31-4.22-2.24-6.44-6.53-6.46-18-.09-36-.09-54,0-4.33.02-6.55,2.34-6.48,6.46.28,16,.6,32,1,48,.23,9,.67,18,.98,27,.68,20.17,1.32,40.33,2.01,60.5.29,8.33.7,16.67.98,25,.37,11,.65,22,1.02,33,.28,8.34.7,16.67.98,25,.37,11,.65,22,1.02,33,.28,8.34.7,16.67.98,25,.37,11,.64,22,1.02,33,.28,8.17.7,16.33.98,24.5.38,11,.54,22.01,1.07,33,.23,4.88,1.01,9.46-.09,14.6-.85,4,2.95,8.82,3.88,13.43.6,2.95.54,5.7,4.15,6.47" style="fill: none; stroke: #000; stroke-linecap: round; stroke-linejoin: round; stroke-width: 2px;"/>
  <path d="M494.17,2.5c-1,4.83-1.68,9.77-3.14,14.46-.7,2.25-.38,3.91-.08,6.07.49,3.55-.65,7.3-.74,10.97-.41,17-.66,34-1.05,51-.24,10.34-.62,20.67-.99,31-.3,8.33-.7,16.67-.98,25-.37,11-.65,22-1.02,33-.28,8.34-.7,16.67-.98,25-.37,11-.65,22-1.02,33-.29,8.67-.69,17.33-.98,26-.36,10.67-.65,21.33-1.02,32-.29,8.33-.7,16.67-.98,25-.37,11-.65,22-1.02,33-.29,8.67-.6,17.34-1.02,26-.18,3.84-.71,7.66-.92,11.5-.04.81.61,1.66.95,2.5" style="fill: none; stroke: #000; stroke-linecap: round; stroke-linejoin: round; stroke-width: 2px;"/>
  <path d="M443.67,21c-1.83,5.83-3.95,11.59-5.45,17.51-7.77,30.64-15.47,61.3-23.02,91.99-6.14,24.97-11.96,50.01-18.05,74.99-5.57,22.86-10.78,45.82-17.2,68.44-3.22,11.36-8.73,22.08-13.29,33.06-11.14,26.84-22.33,53.67-33.48,80.51-.12.28-.01.66-.01.99" style="fill: none; stroke: #000; stroke-linecap: round; stroke-linejoin: round; stroke-width: 2px;"/>
  <path d="M682.17,378c2.52-1.01,3.11-2.91,3.05-5.5-.16-6.5-.08-13-.04-19.5.02-2.49-.03-4-3.48-4.66-15.75-3.03-31.47-6.02-47.53-6.84-13-.66-26.02-2.09-38.99-1.78-11.86.28-23.7,2.25-35.49,3.87-5.16.71-6.51,3.01-6.51,8.41v20.5c0,6.95.46,7.43,7.49,9.52,8.01,2.38,16.28,3.09,24.51,3.36,12.99.44,26.04.77,38.98-.07,12.72-.82,25.34-3.16,38.01-4.81,6.5-.85,13-1.67,19.5-2.5" style="fill: none; stroke: #000; stroke-linecap: round; stroke-linejoin: round; stroke-width: 2px;"/>
  <path d="M682.67,499c1.66.82,2.6,1.88,2.56,4-.15,7-.18,14,0,21,.07,2.77-1.01,4.07-3.56,4.5-7.83,1.33-15.65,2.81-23.51,3.96-10.14,1.48-20.32,2.74-30.5,4-1.81.22-3.67-.05-5.5.05-5.17.29-10.35,1.08-15.5.89-9.35-.34-18.68-1.14-28-1.94-5.35-.46-10.68-1.25-16-1.97-7.77-1.06-9.5-3.02-9.5-10.49v-19.5c0-6.23.41-7.1,6.52-8.43,6.77-1.47,13.61-2.91,20.49-3.45,10.13-.8,20.36-1.46,30.48-.95,13.37.66,26.69,2.33,40,3.89,10.53,1.23,21.01,2.95,31.51,4.45" style="fill: none; stroke: #000; stroke-linecap: round; stroke-linejoin: round; stroke-width: 2px;"/>
  <path d="M824.17,446.5c2.67,17,5.24,34.01,8.03,51,2.54,15.52,5.43,30.98,7.94,46.51,2.5,15.47,4.7,30.99,7.04,46.49,1,6.67,1.29,13.56,3.27,19.91,1.15,3.69-.14,3.29-2.27,3.05-6.51-.73-13.05-1.36-19.49-2.55-4.91-.9-9.75-2.38-14.49-3.99-2.84-.97-5.63-2.45-3.13-6.49.55-.89.04-2.71-.44-3.92-6.27-15.86-12.55-31.71-18.98-47.51-7.75-19.03-15.65-38.01-23.48-57.01-5.84-14.17-11.65-28.34-17.53-42.49-.45-1.09-1.31-2.01-1.97-3.01" style="fill: none; stroke: #000; stroke-linecap: round; stroke-linejoin: round; stroke-width: 2px;"/>
  <path d="M742.67,429.5c-1.36-2.87.42-5.09,1.48-7.51,8.7-19.82,17.44-39.62,26-59.5,11.75-27.3,23.29-54.69,35.07-81.97,3.08-7.14,7.98-12.19,16.44-13.11,8.71-.94,17.33-2.66,26.02-3.85,1.72-.24,3.76-1.38,2.78,3-2.53,11.31-3.49,22.96-5.33,34.43-1.82,11.36-4.12,22.65-5.92,34.01-2.17,13.64-3.91,27.35-6.08,40.99-1.81,11.36-4.03,22.66-5.93,34.01-1.14,6.81-2.03,13.66-3.03,20.5" style="fill: none; stroke: #000; stroke-linecap: round; stroke-linejoin: round; stroke-width: 2px;"/>
  <path d="M811.17,276.5c-1.83,5.5-3.38,11.12-5.55,16.48-10.56,26.04-21.33,52-31.94,78.03-8.07,19.8-16.01,39.66-24.01,59.49" style="fill: none; stroke: #000; stroke-linecap: round; stroke-linejoin: round; stroke-width: 2px;"/>
  <path d="M743.17,447.5c-2.36,2.86-.03,5.12,1.01,7.49,4.63,10.51,9.43,20.96,13.96,31.52,15.72,36.64,31.33,73.34,47.09,109.96.96,2.23,2.93,4.03,4.43,6.03" style="fill: none; stroke: #000; stroke-linecap: round; stroke-linejoin: round; stroke-width: 2px;"/>
  <path d="M348.67,389c11.67.17,23.33.36,35,.49,17.33.19,34.67.45,52,.47,13.17.02,26.38.33,39.49-.63,15-1.1,29.71.64,44.51,2.15,7.66.78,15.33,1.32,23,2.05,1.19.11,2.36.58,3.5.98,5.67,1.98,11.31,4.06,17.01,5.97,4.8,1.61,9.57,3.74,14.51,4.37,10.27,1.33,20.66,1.7,30.98,2.69,6.35.61,12.66,1.73,19.01,2.43,5.82.64,11.67.95,17.49,1.55,9.17.93,18.32,2.12,27.51,2.93,5.31.46,10.68.14,15.99.62,6.36.57,12.7,1.43,19,2.48,9.03,1.5,18.02,3.25,27,4.99,2.37.46,4.67,1.3,7.01,1.97" style="fill: none; stroke: #000; stroke-linecap: round; stroke-linejoin: round; stroke-width: 2px;"/>
  <path d="M141.17,393c-2.17-.5-4.41-1.65-6.49-1.39-11.53,1.44-23.13,2.68-34.49,5.03-15.11,3.12-30.12,6.85-45,10.96-15.7,4.34-30.1,11.56-43.58,20.82-12.44,8.54-9.93,13.1.05,20.09,16.86,11.81,35.54,19.36,55.5,24.01,11.02,2.57,21.95,5.58,33.02,7.89,7.23,1.5,14.64,2.13,21.98,3.08,5.68.73,11.15,1.03,17.07-.09,5.82-1.1,12.25,1.14,18.43,1.83,2.65.29,5.33.35,8,.52,8.83.58,17.66,1.58,26.5,1.67,24.33.23,48.67.08,73,.08h38.5c13.5,0,27,.01,40.5-.02,1,0,2-.31,3-.48" style="fill: none; stroke: #000; stroke-linecap: round; stroke-linejoin: round; stroke-width: 2px;"/>
  <path d="M347.17,390c-6.5-.17-13-.45-19.5-.48-18.83-.06-37.67-.02-56.5-.02-30,0-60-.28-90,.14-11.84.16-23.67,1.84-35.5,2.89-1.1.1-2.17.64-3.25.97" style="fill: none; stroke: #000; stroke-linecap: round; stroke-linejoin: round; stroke-width: 2px;"/>
  <path d="M727.17,431.5c6.5-.33,13-.96,19.5-.95,21.5.03,43,.15,64.5.5,11.17.19,22.35.7,33.49,1.54,6.54.49,13.03,1.77,19.49,3.01,1.47.28,2.69,1.89,4.02,2.89-1.33,1-2.54,2.58-4.02,2.89-4.61.96-9.29,1.66-13.98,2.06-6.48.55-13.03.4-19.49,1.11-17.32,1.9-34.67.55-52.01.89-7.16.14-14.33-.4-21.5-.39-3.17,0-6.33.84-9.5.89-4.16.06-8.33-.25-12.5-.46-1.17-.06-2.41-.66-3.49-.43-5.77,1.26-10.29-2.62-15.49-3.67-1.31-.26-2.36-1.89-3.52-2.89,1.33-1.17,2.49-2.75,4.04-3.41,3.04-1.3,6.3-2.09,9.46-3.09" style="fill: none; stroke: #000; stroke-linecap: round; stroke-linejoin: round; stroke-width: 2px;"/>
  <path d="M726.17,431c-6-.83-11.98-1.97-18-2.45-20.81-1.66-41.65-2.56-62.49-.47-1.73.17-3.34,1.58-5.01,2.41" style="fill: none; stroke: #000; stroke-linecap: round; stroke-linejoin: round; stroke-width: 2px;"/>
  <path d="M640.67,446c5-1,10.03-1.88,14.99-3.04,3.38-.79,6.72-1.83,9.99-3,2.12-.76,2.06-1.98.01-2.95-1.48-.7-2.94-1.64-4.51-1.96-7.14-1.45-14.28-3.17-21.51-3.89-4.92-.49-9.98.65-14.99.82-12.33.42-24.67.61-37,1.05-10.17.37-20.34.93-30.5,1.53-1.03.06-2,.94-3,1.44" style="fill: none; stroke: #000; stroke-linecap: round; stroke-linejoin: round; stroke-width: 2px;"/>
  <path d="M724.17,446c-6.17.83-12.31,2.05-18.5,2.42-12.98.77-25.99,1.28-39,1.5-6.99.12-14-.52-20.99-.98-1.36-.09-3.25-.55-3.9-1.51-2.01-2.98-4.85-2.37-7.61-2.43-15.5-.33-31-.56-46.5-1.04-9.34-.29-18.67-.9-28-1.52-1.53-.1-3-.94-4.5-1.44" style="fill: none; stroke: #000; stroke-linecap: round; stroke-linejoin: round; stroke-width: 2px;"/>
  <path d="M741.67,452.5c-8.5,1.67-16.98,3.43-25.5,4.97-8.98,1.62-17.97,3.17-27,4.46-3.94.56-8,.3-11.99.59-13.17.95-26.34,1.9-39.5,3-16.84,1.41-33.7,2.7-50.49,4.62-6.28.72-12.7.96-18.66,4.62-4.42,2.71-10.31,2.9-15.33,4.81-11.32,4.3-23.12,5.26-35.02,5.96-11.84.7-23.66,1.99-35.51,2.35-8.65.27-17.33-.81-26-.83-15.83-.03-31.67.33-47.5.43-13,.08-26,.07-39,0-7-.04-14-.31-21-.48" style="fill: none; stroke: #000; stroke-linecap: round; stroke-linejoin: round; stroke-width: 2px;"/>
  <path d="M244.17,486.5c0-4-.18-8.01.05-12,.22-3.78-1.46-5.47-5.05-5.49-7.33-.04-14.67-.09-22,.02-3.76.06-5.83,1.79-5.56,5.97.26,3.98.06,8,.06,12" style="fill: none; stroke: #000; stroke-linecap: round; stroke-linejoin: round; stroke-width: 2px;"/>
  <path d="M681.67,383.5c-8.67,1.17-17.31,2.57-26.01,3.44-12.14,1.22-24.33,2.06-36.49,3.05-2.49.2-4.76.06-4-3.49" style="fill: none; stroke: #000; stroke-linecap: round; stroke-linejoin: round; stroke-width: 2px;"/>
  <path d="M614.67,490c.55-2.43,1.11-3.57,4.52-3.2,11.11,1.2,22.33,1.3,33.47,2.27,9.53.83,19.01,2.26,28.51,3.43" style="fill: none; stroke: #000; stroke-linecap: round; stroke-linejoin: round; stroke-width: 2px;"/>
  <path d="M407.67,487c0-3-.04-6,.01-9,.06-3.45-1.57-5.05-5.01-5.01-5,.05-10,.05-15,0-3.45-.04-5.07,1.57-5.01,5.01.05,3,.01,6,.01,9" style="fill: none; stroke: #000; stroke-linecap: round; stroke-linejoin: round; stroke-width: 2px;"/>
  <path d="M382.67,390.5c0,2.5.17,5.01-.04,7.5-.34,4.12,1.86,5.84,5.54,5.96,4.66.16,9.33.13,14,0,3.76-.1,5.92-1.8,5.54-5.98-.22-2.48-.04-5-.04-7.5" style="fill: none; stroke: #000; stroke-linecap: round; stroke-linejoin: round; stroke-width: 2px;"/>
  <path d="M94.17,443.5c1.37,10.69,7.47,18.48,15.52,24.97,4.88,3.94,10,7.6,16.48,8.51,1.14.16,2.49.39,3.47-.04,5.89-2.55,11.74-5.18,17.51-7.98,2.73-1.33,4.89-.57,7.57.42,6.86,2.54,13.93,4.56,20.97,6.56,2.05.58,4.32.4,6.48.56" style="fill: none; stroke: #000; stroke-linecap: round; stroke-linejoin: round; stroke-width: 2px;"/>
  <path d="M148.67,409c-3.83-1.67-8.04-2.79-11.43-5.1-10.13-6.91-18.39-3.12-26.6,3.57-8.15,6.65-14.51,14.36-16.47,25.03" style="fill: none; stroke: #000; stroke-linecap: round; stroke-linejoin: round; stroke-width: 2px;"/>
  <path d="M136.67,442c-2-.67-3.99-1.87-6-1.91-10.33-.2-20.67-.05-31-.12-2.2-.01-4.12.12-5,2.53" style="fill: none; stroke: #000; stroke-linecap: round; stroke-linejoin: round; stroke-width: 2px;"/>
  <path d="M94.67,433.5c1.33,1,2.65,2.84,4,2.87,11.33.23,22.66.17,34,.07,1,0,2-.93,3-1.43" style="fill: none; stroke: #000; stroke-linecap: round; stroke-linejoin: round; stroke-width: 2px;"/>
  <path d="M27.67,420v37.5" style="fill: none; stroke: #000; stroke-linecap: round; stroke-linejoin: round; stroke-width: 2px;"/>
  <path d="M811.67,601c12.17.17,24.33.33,36.5.5" style="fill: none; stroke: #000; stroke-linecap: round; stroke-linejoin: round; stroke-width: 2px;"/>
  <path d="M485.92,4c-1.92-.5-4.09-1.85-5.71-1.35-7.35,2.26-15.26,2.45-22.16,6.67-2.92,1.79-4.89,3.59-5.89,6.68" style="fill: none; stroke: #000; stroke-linecap: round; stroke-linejoin: round; stroke-width: 2px;"/>
  <path d="M848.17,275.5c-12.5.17-25,.34-37.5.46-.33,0-.67-.62-1-.96" style="fill: none; stroke: #000; stroke-linecap: round; stroke-linejoin: round; stroke-width: 2px;"/>
  <path d="M453.17,17c2.31,2.49,5.19,3.1,8.5,3.05,9.16-.14,18.33-.05,27.5-.05" style="fill: none; stroke: #000; stroke-linecap: round; stroke-linejoin: round; stroke-width: 2px;"/>
  <path d="M556.67,346v33.5" style="fill: none; stroke: #000; stroke-linecap: round; stroke-linejoin: round; stroke-width: 2px;"/>
  <path d="M556.67,497.5v33" style="fill: none; stroke: #000; stroke-linecap: round; stroke-linejoin: round; stroke-width: 2px;"/>
  <path d="M451.17,861c2.61,5.86,8.32,7.52,13.54,9.38,5.3,1.88,10.94,2.87,16.47,4.06,1.24.27,2.65-.27,3.99-.44" style="fill: none; stroke: #000; stroke-linecap: round; stroke-linejoin: round; stroke-width: 2px;"/>
  <path d="M179.67,399c-6.33,1.83-12.67,3.65-19,5.5-12.93,3.79-19.85,13.17-23.43,25.52-.39,1.34.27,2.98.42,4.48.17,1.67.86,3.49.42,4.97-2.68,9,2.24,15.68,6.62,22.5,1.27,1.98,2.96,3.69,4.46,5.52" style="fill: none; stroke: #000; stroke-linecap: round; stroke-linejoin: round; stroke-width: 2px;"/>
  <path d="M484.67,5c-10.92,3.83-21.85,7.62-32.74,11.54-2.51.91-4.85,2.29-7.26,3.46" style="fill: none; stroke: #000; stroke-linecap: round; stroke-linejoin: round; stroke-width: 2px;"/>
  <path d="M682.17,378.5c1.17,6.5,2.27,13.01,3.52,19.5,1.07,5.52,2.31,11,3.48,16.5" style="fill: none; stroke: #000; stroke-linecap: round; stroke-linejoin: round; stroke-width: 2px;"/>
  <path d="M689.17,462.5c-2.5,10-5.09,19.98-7.41,30.02-.43,1.86.25,3.98.41,5.98" style="fill: none; stroke: #000; stroke-linecap: round; stroke-linejoin: round; stroke-width: 2px;"/>
  <path d="M456.67,861c7.67,3,15.36,5.93,22.98,9.05,2.12.87,3.9,2.69,6.05,3.35,2.53.78,5.3.77,7.97,1.1" style="fill: none; stroke: #000; stroke-linecap: round; stroke-linejoin: round; stroke-width: 2px;"/>
  <path d="M271.67,390.5c.64,2.34-1.74,6.08,2.03,6.84,3.68.74,7.74.63,11.4-.16.96-.21,1.07-4.35,1.57-6.68" style="fill: none; stroke: #000; stroke-linecap: round; stroke-linejoin: round; stroke-width: 2px;"/>
  <path d="M468.67,486.5c-.33-2.33-.34-6.56-1.05-6.68-3.89-.66-8.13-1.03-11.89-.08-2.8.71-2.32,4.16-1.56,6.76" style="fill: none; stroke: #000; stroke-linecap: round; stroke-linejoin: round; stroke-width: 2px;"/>
  <path d="M387.67,390.5c0,7.19.13,7.49,5.5,7.47,8.31-.04,9.39,1.49,10-7.47" style="fill: none; stroke: #000; stroke-linecap: round; stroke-linejoin: round; stroke-width: 2px;"/>
  <path d="M436.17,486.5c.76-2.6,1.24-6.06-1.56-6.76-3.76-.95-8-.58-11.89.08-.71.12-.72,4.35-1.05,6.68" style="fill: none; stroke: #000; stroke-linecap: round; stroke-linejoin: round; stroke-width: 2px;"/>
  <path d="M402.67,486.5c1.11-6.18.06-7.49-6-7.5-.83,0-1.67,0-2.5,0-6.58.03-7.25.87-6,7.5" style="fill: none; stroke: #000; stroke-linecap: round; stroke-linejoin: round; stroke-width: 2px;"/>
  <path d="M323.67,486.5c.84-2.62,1.16-6.03-1.56-6.76-3.57-.96-7.8-.96-11.37,0-2.81.75-2.32,4.17-1.56,6.77" style="fill: none; stroke: #000; stroke-linecap: round; stroke-linejoin: round; stroke-width: 2px;"/>
  <path d="M286.17,486.5c.3-2.42,1.92-5.95-1.07-6.76-3.73-1.01-8.14-1.01-11.87,0-2.98.8-1.37,4.33-1.07,6.76" style="fill: none; stroke: #000; stroke-linecap: round; stroke-linejoin: round; stroke-width: 2px;"/>
  <path d="M487.17,390c.28,2.6-1.27,6.38,2.06,7.29,3.41.93,7.36.69,10.92.07,3.36-.59,2.4-3.92,2.52-6.36" style="fill: none; stroke: #000; stroke-linecap: round; stroke-linejoin: round; stroke-width: 2px;"/>
  <path d="M309.17,390.5c-1.15,6.12-.07,7.47,6,7.5.83,0,1.67,0,2.5,0,5.69-.07,6.43-.93,6.5-7.5" style="fill: none; stroke: #000; stroke-linecap: round; stroke-linejoin: round; stroke-width: 2px;"/>
  <path d="M421.17,390.5c.28,2.53-1.2,6.24,2.53,6.83,3.71.59,7.72.19,11.41-.62.77-.17.73-4.04,1.06-6.21" style="fill: none; stroke: #000; stroke-linecap: round; stroke-linejoin: round; stroke-width: 2px;"/>
  <path d="M454.17,390.5c-1.3,6.22,1.7,7.93,6,7.51.5-.05,1,0,1.5,0,7.11,0,7.5-.39,7.5-7.5" style="fill: none; stroke: #000; stroke-linecap: round; stroke-linejoin: round; stroke-width: 2px;"/>
  <path d="M631.67,467.5v19.5" style="fill: none; stroke: #000; stroke-linecap: round; stroke-linejoin: round; stroke-width: 2px;"/>
  <path d="M631.67,390.5v19" style="fill: none; stroke: #000; stroke-linecap: round; stroke-linejoin: round; stroke-width: 2px;"/>
  <path d="M570.67,477.5c3.13,4.38.76,9.36,1.5,14" style="fill: none; stroke: #000; stroke-linecap: round; stroke-linejoin: round; stroke-width: 2px;"/>
  <path d="M572.17,385.5c-.67,4.31,1.54,8.96-1.5,13" style="fill: none; stroke: #000; stroke-linecap: round; stroke-linejoin: round; stroke-width: 2px;"/>
  <path d="M141.17,394c-1.67.67-3.38,1.24-4.99,2.02-2.21,1.08-4.34,2.31-6.51,3.48" style="fill: none; stroke: #000; stroke-linecap: round; stroke-linejoin: round; stroke-width: 2px;"/>
  <path d="M93.67,433.5c-1.98,3-2.64,6,0,9" style="fill: none; stroke: #000; stroke-linecap: round; stroke-linejoin: round; stroke-width: 2px;"/>
  <path d="M498.17,0l-12,3" style="fill: none; stroke: #000; stroke-linecap: round; stroke-linejoin: round; stroke-width: 2px;"/>
</svg>